<?xml version="1.0" standalone="no"?>
<!DOCTYPE svg PUBLIC "-//W3C//DTD SVG 20010904//EN"
 "http://www.w3.org/TR/2001/REC-SVG-20010904/DTD/svg10.dtd">
<svg version="1.0" xmlns="http://www.w3.org/2000/svg"
 width="700.000000pt" height="700.000000pt" viewBox="0 0 700.000000 700.000000"
 preserveAspectRatio="xMidYMid meet">
<metadata>
Created by potrace 1.11, written by Peter Selinger 2001-2013
</metadata>
<g transform="translate(0.000000,700.000000) scale(0.100000,-0.100000)"
fill="#000000" stroke="none">
<path d="M2200 6505 c-14 -8 -32 -17 -40 -21 -61 -30 -455 -307 -611 -429
-136 -108 -266 -230 -432 -407 -68 -73 -245 -311 -340 -458 -122 -189 -270
-483 -360 -715 -33 -82 -65 -166 -73 -185 -33 -86 -155 -507 -170 -590 -3 -14
-7 -33 -10 -42 -3 -10 -8 -30 -10 -45 -3 -16 -14 -68 -24 -118 -23 -108 -49
-261 -56 -323 -2 -25 -6 -47 -8 -51 -2 -3 -7 -35 -11 -71 -3 -36 -8 -76 -10
-90 -26 -179 -40 -428 -39 -705 0 -287 7 -359 49 -528 92 -364 337 -721 645
-939 98 -69 294 -175 365 -198 22 -7 54 -18 70 -25 40 -17 179 -52 235 -60 25
-3 52 -8 62 -11 43 -13 339 -20 398 -10 14 3 45 7 70 10 590 76 1124 506 1330
1072 26 71 68 226 75 274 5 42 16 107 21 135 5 25 5 292 0 325 -2 14 -7 50
-10 80 -4 30 -12 75 -18 100 -5 25 -12 56 -14 70 -19 100 -129 359 -203 475
-134 211 -342 415 -556 545 -80 49 -227 120 -248 120 -7 0 -17 3 -21 7 -17 17
-238 79 -316 88 -25 3 -56 8 -70 11 -44 10 -302 12 -380 2 -91 -10 -203 -33
-289 -59 -35 -10 -65 -19 -68 -19 -3 0 0 24 13 90 11 58 57 259 74 325 12 44
23 87 25 96 14 64 116 378 162 499 55 146 151 375 216 515 47 102 246 499 269
536 9 13 31 53 50 89 19 36 80 144 135 240 121 211 191 346 195 380 2 20 -2
25 -22 28 -14 1 -36 -4 -50 -13z"/>
<path d="M5880 6513 c-86 -34 -614 -408 -786 -558 -441 -383 -798 -916 -1040
-1550 -79 -207 -162 -480 -214 -705 -12 -52 -24 -104 -27 -115 -2 -11 -7 -36
-9 -55 -3 -19 -10 -53 -16 -75 -6 -22 -12 -53 -15 -70 -2 -16 -6 -41 -9 -55
-2 -14 -9 -54 -14 -90 -6 -36 -13 -78 -16 -95 -3 -16 -7 -50 -10 -75 -2 -25
-8 -79 -14 -120 -12 -101 -19 -162 -25 -245 -2 -38 -7 -106 -10 -150 -7 -84
-7 -505 -1 -565 45 -463 283 -890 651 -1171 122 -94 284 -184 410 -229 33 -12
69 -25 80 -30 50 -23 207 -55 360 -75 54 -7 242 -7 313 -1 558 53 1062 392
1323 891 73 139 146 358 165 490 3 28 9 59 11 70 8 36 10 308 3 370 -19 149
-23 174 -42 245 -129 487 -441 870 -887 1089 -53 26 -105 50 -116 54 -11 3
-53 17 -93 31 -41 14 -83 28 -95 30 -12 3 -31 7 -42 9 -41 10 -142 27 -203 35
-70 10 -327 9 -382 -1 -19 -4 -46 -9 -60 -11 -91 -15 -127 -23 -252 -62 -25
-8 -24 9 17 194 109 503 285 992 551 1527 58 116 129 255 159 310 30 55 60
109 65 120 6 11 14 27 20 35 5 8 63 111 130 228 183 326 207 383 158 381 -13
0 -30 -3 -38 -6z"/>
</g>
</svg>
